<?xml version="1.0" standalone="no"?>
<!DOCTYPE svg PUBLIC "-//W3C//DTD SVG 20010904//EN"
 "http://www.w3.org/TR/2001/REC-SVG-20010904/DTD/svg10.dtd">
<svg version="1.0" xmlns="http://www.w3.org/2000/svg"
 width="2000.000000pt" height="2000.000000pt" viewBox="0 0 2000.000000 2000.000000"
 preserveAspectRatio="xMidYMid meet">
<metadata>
Created by potrace 1.14, written by Peter Selinger 2001-2017
</metadata>
<g transform="translate(0.000000,2000.000000) scale(0.100000,-0.100000)"
fill="#000000" stroke="none">
<path d="M12213 16288 c-152 -228 -273 -380 -431 -542 -202 -207 -359 -294
-599 -332 -21 -3 -40 -7 -43 -9 -3 -2 -41 -6 -85 -10 -44 -4 -89 -9 -99 -11
-30 -5 -204 -14 -406 -19 -214 -6 -384 -13 -455 -20 -27 -3 -72 -8 -100 -11
-27 -3 -57 -7 -65 -9 -8 -2 -33 -7 -55 -10 -96 -13 -222 -48 -278 -76 -259
-131 -534 -463 -785 -949 -61 -119 -75 -127 -151 -93 -202 91 -462 176 -671
219 -110 23 -161 28 -280 28 -159 1 -188 -3 -295 -39 -68 -22 -349 -158 -405
-195 -14 -9 -77 -48 -140 -85 -114 -68 -178 -109 -400 -254 -393 -256 -655
-397 -861 -465 -181 -59 -305 -64 -514 -20 -58 12 -221 82 -298 127 -80 48
-169 113 -222 163 -58 55 -65 59 -60 34 2 -12 14 -76 25 -143 12 -67 34 -185
51 -262 16 -77 31 -149 33 -160 3 -11 13 -57 24 -103 11 -45 17 -84 13 -86 -3
-2 -42 -7 -86 -10 -44 -4 -91 -9 -105 -11 -14 -2 -54 -7 -90 -10 -36 -4 -72
-8 -80 -10 -18 -3 -166 -17 -200 -19 -28 -1 -25 7 -134 -298 l-67 -187 32 -55
c17 -31 26 -56 20 -56 -5 0 -38 -14 -73 -30 l-63 -30 1 -48 c1 -42 11 -63 106
-207 57 -88 137 -212 178 -275 40 -63 106 -164 145 -225 64 -100 331 -523 359
-569 6 -11 34 -56 62 -100 135 -215 636 -1046 754 -1251 10 -16 57 -97 105
-180 126 -215 174 -299 223 -385 14 -25 45 -78 69 -118 24 -41 43 -76 43 -78
0 -2 11 -22 25 -44 14 -22 25 -45 25 -52 0 -7 -141 -84 -314 -171 l-314 -159
10 -31 c5 -18 12 -42 15 -54 3 -13 12 -24 19 -24 14 -1 27 -4 42 -9 4 -1 10
-2 14 -1 3 0 18 -15 32 -34 18 -23 22 -35 13 -38 -8 -4 -7 -6 3 -6 8 -1 25
-19 37 -41 12 -22 18 -38 14 -36 -4 3 -8 -1 -8 -8 0 -8 6 -12 13 -9 11 4 31
-49 26 -69 -1 -5 3 -8 9 -8 5 0 7 -5 4 -10 -3 -6 -2 -10 4 -10 12 0 33 -69 25
-82 -3 -4 -10 -5 -16 -2 -7 4 -8 2 -4 -4 4 -6 13 -9 20 -6 15 6 43 -104 33
-131 -4 -8 -3 -15 2 -15 4 0 6 -26 4 -57 -5 -65 -4 -64 -118 -122 -347 -178
-360 -186 -370 -219 -5 -18 -13 -32 -17 -32 -4 0 -8 -6 -8 -14 0 -8 -6 -18
-13 -23 -14 -9 -90 -11 -97 -2 -3 3 -19 9 -37 12 -31 6 -32 5 -47 -41 -23 -74
-46 -191 -71 -362 -18 -130 -25 -447 -12 -585 15 -158 53 -320 102 -431 22
-49 -65 -16 840 -317 550 -183 1252 -419 1635 -552 91 -31 170 -58 175 -59 6
-2 17 -6 25 -9 8 -3 101 -35 205 -71 188 -64 582 -200 805 -278 63 -22 174
-60 245 -85 208 -73 279 -98 465 -163 96 -34 225 -79 285 -100 61 -21 182 -63
270 -95 88 -31 363 -129 610 -217 791 -281 948 -338 962 -350 9 -7 16 1 28 27
8 21 15 41 15 45 0 14 52 124 72 153 28 39 57 33 85 -19 12 -22 24 -49 26 -60
1 -10 7 -20 12 -22 6 -1 185 132 399 295 214 164 462 353 550 420 89 67 253
193 366 279 113 86 230 174 260 197 30 22 57 43 60 47 3 3 21 17 40 30 19 13
37 27 40 30 3 3 70 56 150 116 274 208 485 369 500 381 31 25 550 420 665 507
66 49 122 92 125 96 3 3 50 39 105 81 55 41 152 115 215 164 63 48 148 112
188 142 l72 55 0 58 0 58 -70 17 c-59 14 -73 22 -89 49 -68 113 -83 381 -36
641 21 115 21 114 41 180 10 33 18 62 19 65 4 32 38 77 86 114 l60 47 -3 66
-3 67 -35 8 c-19 5 -44 10 -55 13 -17 4 -119 30 -420 107 -22 5 -47 11 -55 13
-8 2 -16 4 -17 5 -3 2 -17 6 -30 9 -4 0 11 14 33 30 21 16 42 27 47 24 4 -2 6
0 5 5 -4 13 193 163 204 156 5 -3 7 -1 6 4 -2 6 -1 9 2 8 3 0 19 12 34 27 16
16 34 26 41 23 7 -2 12 2 11 11 0 9 5 18 12 20 8 3 10 -1 5 -14 -3 -10 -3 -15
1 -11 4 3 8 12 10 20 1 8 11 24 23 37 12 13 27 36 34 53 8 19 17 27 27 23 12
-4 13 -3 2 10 -7 8 -8 15 -2 15 5 0 12 9 15 21 3 12 10 18 16 14 7 -4 8 0 5
10 -4 9 1 22 12 31 11 9 12 12 4 8 -13 -7 -13 -6 0 12 8 10 20 22 25 26 6 4 7
8 3 8 -4 0 0 17 9 38 30 71 36 87 39 97 45 146 46 251 5 526 -18 122 -86 457
-94 465 -2 2 -24 -8 -50 -21 -25 -14 -55 -25 -67 -25 -22 0 -55 46 -65 92 -4
15 -11 30 -15 33 -5 3 -98 21 -207 40 -109 19 -209 37 -223 40 -14 3 -79 15
-145 26 -66 12 -124 23 -129 26 -5 3 27 18 70 33 44 15 91 32 107 38 15 6 27
9 27 6 0 -4 6 -2 13 4 24 19 715 237 1092 343 39 11 90 26 115 33 25 8 107 30
182 51 l138 38 -37 41 c-20 22 -54 61 -77 86 -23 25 -100 110 -171 190 -71 80
-132 147 -136 150 -3 3 -10 12 -15 21 -5 9 -25 36 -45 60 -21 24 -74 91 -120
149 -46 58 -88 110 -94 116 -15 17 -70 85 -170 211 l-91 113 58 117 c57 117
141 327 152 380 6 26 1 31 -81 76 -186 102 -446 279 -657 449 -509 408 -719
617 -934 930 -83 120 -262 396 -262 403 0 2 -12 23 -27 47 -16 24 -33 52 -40
63 -75 127 -111 189 -137 235 -16 30 -61 111 -98 180 -105 189 -382 754 -506
1030 -125 278 -242 546 -242 554 0 3 -15 38 -33 78 -19 40 -47 105 -62 143
-16 39 -32 74 -36 78 -4 5 -47 -51 -96 -125z m-433 -11043 c-7 -8 -17 -15 -23
-15 -6 0 -2 7 9 15 25 19 30 19 14 0z"/>
<path d="M15155 8290 c10 -11 20 -20 23 -20 3 0 -3 9 -13 20 -10 11 -20 20
-23 20 -3 0 3 -9 13 -20z"/>
<path d="M5337 8249 c7 -7 15 -10 18 -7 3 3 -2 9 -12 12 -14 6 -15 5 -6 -5z"/>
<path d="M15045 8247 c-14 -11 -15 -16 -5 -22 9 -6 11 -4 5 5 -6 9 -4 12 7 8
9 -4 15 0 15 8 0 17 1 17 -22 1z"/>
<path d="M5373 8203 c1 -15 5 -19 13 -13 6 6 13 7 16 4 3 -3 9 -1 12 4 3 6 -2
9 -11 8 -10 -2 -21 2 -25 8 -4 6 -6 1 -5 -11z"/>
<path d="M15010 8216 c0 -2 8 -10 18 -17 15 -13 16 -12 3 4 -13 16 -21 21 -21
13z"/>
<path d="M14993 8185 c0 -8 4 -12 9 -9 5 3 6 10 3 15 -9 13 -12 11 -12 -6z"/>
<path d="M14913 8133 c0 -9 4 -10 14 -2 7 6 13 12 13 14 0 1 -6 2 -13 2 -8 0
-14 -6 -14 -14z"/>
<path d="M14890 8081 c0 -6 4 -13 10 -16 6 -3 7 1 4 9 -7 18 -14 21 -14 7z"/>
<path d="M5476 8018 c3 -5 10 -6 15 -3 13 9 11 12 -6 12 -8 0 -12 -4 -9 -9z"/>
</g>
</svg>
